<?xml version="1.0" ?><svg id="Icons" viewBox="0 0 24 24" xmlns="http://www.w3.org/2000/svg" xmlns:xlink="http://www.w3.org/1999/xlink"><defs><style>.cls-1{fill:url(#linear-gradient);}.cls-2{fill:url(#linear-gradient-2);}.cls-3{fill:url(#linear-gradient-3);}</style><linearGradient gradientUnits="userSpaceOnUse" id="linear-gradient" x1="12" x2="12" y1="1" y2="17.008"><stop offset="0" stop-color="#f2f2f2"/><stop offset="1" stop-color="#dbdbdb"/></linearGradient><linearGradient gradientUnits="userSpaceOnUse" id="linear-gradient-2" x1="12" x2="12" y1="17.043" y2="23.043"><stop offset="0" stop-color="#ffaa39"/><stop offset="1" stop-color="#ff811a"/></linearGradient><linearGradient gradientUnits="userSpaceOnUse" id="linear-gradient-3" x1="9" x2="15" y1="9" y2="9"><stop offset="0" stop-color="#ff4867"/><stop offset="1" stop-color="#e50031"/></linearGradient></defs><rect class="cls-1" height="22" rx="4" width="22" x="1" y="1"/><path class="cls-2" d="M23,17v2a4,4,0,0,1-4,4H5a4,4,0,0,1-4-4V17Z"/><path class="cls-3" d="M11.119,6.156l3.072,1.535a1.463,1.463,0,0,1,0,2.618l-3.072,1.535A1.464,1.464,0,0,1,9,10.535V7.465A1.464,1.464,0,0,1,11.119,6.156Z"/></svg>