<?xml version="1.0" ?><svg xmlns="http://www.w3.org/2000/svg" xmlns:xlink="http://www.w3.org/1999/xlink" version="1.1" viewBox="0 0 512 512" style="enable-background:new 0 0 512 512;" xml:space="preserve"><g id="_x32_5_3d_Glasses"><g><linearGradient id="SVGID_1_" gradientUnits="userSpaceOnUse" x1="284.9663" y1="-205.8512" x2="226.5783" y2="880.1655"><stop offset="0" style="stop-color:#EAE9FE"/><stop offset="0.4236" style="stop-color:#EEEEFE"/><stop offset="0.8967" style="stop-color:#FBFBFF"/><stop offset="1" style="stop-color:#FFFFFF"/></linearGradient><path style="fill:url(#SVGID_1_);" d="M468.836,264.275c-9.501-7.393-20.976-13.763-25.395-24.961    c-6.01-15.229,3.596-31.571,9.261-46.931c17.297-46.899-4.903-102.439-44.732-132.645    c-75.982-57.623-224.302-37.425-245.028,42.219c-8.768,33.692,6.941,72.131-9.131,103.013    c-20.278,38.966-74.073,41.594-108.719,58.921C2.169,285.358-6.419,332.1,24.365,367.686    c11.304,13.068,25.769,22.07,36.136,36.348c15.001,20.659,23.415,43.504,43.486,60.545c28.263,23.996,75.517,29.946,100.538,2.586    c14.089-15.407,18.674-38.106,34.054-52.225c20.245-18.586,52.242-16.086,78.004-6.514c25.762,9.571,49.654,25.026,76.789,29.381    c42.426,6.81,87.917-18.085,105.053-57.489C515.561,340.912,502.748,290.664,468.836,264.275z"/><path style="fill:#DBDBDB;" d="M450.659,251.625c-4.126-2.923-9.197-4.556-14.698-4.556h-23.637l-53.29-84.147    c-2.493-3.954-7.822-5.071-11.69-2.492l-11.002,7.306c-3.009,1.977-6.36,2.923-9.627,2.923c-5.673,0-11.174-2.751-14.612-7.736    c-5.501-8.079-3.266-19.167,4.899-24.496l27.074-17.792c11.432-7.478,26.817-3.009,32.49,9.368L450.659,251.625z"/><path style="fill:#DBDBDB;" d="M198.304,162.923c-3.438,4.985-8.939,7.736-14.612,7.736c-3.266,0-6.618-0.946-9.627-2.923    l-10.916-7.22c-3.868-2.664-9.197-1.548-11.775,2.492L98.17,247.069H74.963c-5.931,0-11.345,1.977-15.643,5.243l74.52-122.31    c5.673-12.377,21.058-16.846,32.49-9.368l27.075,17.792C201.657,143.756,203.891,154.843,198.304,162.923z"/><path style="fill:#EDEDED;" d="M461.746,272.855v96.696c0,14.268-11.517,25.786-25.786,25.786H316.574    c-6.791,0-13.408-2.75-18.222-7.563l-24.669-24.669c-10.056-10.056-26.387-10.056-36.443,0l-24.754,24.669    c-4.899,4.813-11.431,7.563-18.308,7.563H74.963c-14.268,0-25.786-11.517-25.786-25.786v-96.696c0-1.289,0.086-2.492,0.344-3.781    c0-0.258,0-0.516,0.086-0.774c1.117-6.446,4.641-12.119,9.713-15.987c4.298-3.266,9.712-5.243,15.643-5.243h360.998    c5.501,0,10.572,1.633,14.698,4.556C457.363,256.266,461.746,264.088,461.746,272.855z"/><path style="fill:#2769FD;" d="M201.055,290.045c7.993,7.994,12.893,18.996,12.893,31.115c0,24.41-19.683,44.093-44.007,44.093    H96.451c-9.454,0-17.19-7.735-17.19-17.19v-53.72c0-9.454,7.736-17.19,17.19-17.19h73.489    C182.145,277.152,193.147,282.052,201.055,290.045z"/><path style="fill:#FF5859;" d="M309.869,290.045c-7.993,7.994-12.893,18.996-12.893,31.115c0,24.41,19.683,44.093,44.007,44.093    h73.489c9.454,0,17.19-7.735,17.19-17.19v-53.72c0-9.454-7.736-17.19-17.19-17.19h-73.489    C328.779,277.152,317.777,282.052,309.869,290.045z"/><path style="fill:#332E8E;" d="M74.963,399.504h119.215c7.941,0,15.478-3.11,21.25-8.778l24.758-24.676    c8.425-8.422,22.128-8.422,30.55,0l24.669,24.67c5.586,5.581,13.3,8.783,21.168,8.783h119.388    c16.516,0,29.953-13.437,29.953-29.953v-96.697c0-9.521-4.528-18.417-12.078-24.024l-73.588-120.796    c-6.823-14.52-24.975-19.711-38.46-10.882l-27.063,17.784c-10.128,6.611-12.894,20.306-6.052,30.353    c6.66,9.657,19.788,12.614,29.975,5.919l11.008-7.31c1.903-1.267,4.596-0.747,5.857,1.255l49.238,77.748H105.74l49.148-77.652    c1.269-1.989,3.892-2.685,5.961-1.258l10.927,7.228c10.204,6.701,23.325,3.686,29.958-5.931    c6.877-9.951,4.228-23.713-6.041-30.345l-27.082-17.797c-13.444-8.792-31.607-3.679-38.451,10.887L56.112,249.572    c-7.297,5.91-11.102,14.589-11.102,23.283v96.697C45.01,386.067,58.447,399.504,74.963,399.504z M362.56,160.701    c-3.739-5.933-11.703-7.625-17.52-3.742l-10.985,7.294c-6.36,4.183-14.427,2.236-18.505-3.675    c-4.18-6.141-2.507-14.588,3.743-18.668l27.067-17.786c9.291-6.083,21.812-2.439,26.419,7.616    c0.068,0.148,0.145,0.292,0.229,0.431l67.673,111.086c-5.584-0.483,3.561-0.316-26.063-0.355L362.56,160.701z M137.399,132.171    c0.085-0.138,0.163-0.284,0.231-0.431c4.616-10.075,17.146-13.683,26.411-7.622l27.103,17.811    c6.256,4.039,8.001,12.452,3.732,18.625c0,0.001-0.001,0.003-0.003,0.004c-4.131,5.989-12.209,7.844-18.508,3.704l-10.851-7.177    c-5.772-3.975-13.771-2.403-17.661,3.696l-51.976,82.122c-13.932,0.24-20.941-0.468-26.221,0.461L137.399,132.171z     M53.715,269.012c0.925-5.337,3.814-10.091,8.128-13.38c9.058-6.887,17.208-3.503,36.328-4.396h314.153    c19.678,0.795,27.444-2.219,35.962,3.815c5.819,4.029,9.293,10.685,9.293,17.803v96.697c0,11.92-9.698,21.618-21.618,21.618    H316.574c-5.675,0-11.243-2.312-15.275-6.341l-24.669-24.67c-5.836-5.836-13.503-8.756-21.17-8.756    c-7.664,0-15.329,2.917-21.163,8.751L209.564,384.8c-4.18,4.108-9.645,6.368-15.386,6.368H74.963    c-11.92,0-21.618-9.698-21.618-21.618C53.431,266.261,53.08,272.636,53.715,269.012z"/><path style="fill:#332E8E;" d="M96.452,369.421h73.488c26.564,0,48.176-21.65,48.176-48.26c0-26.118-21.005-48.176-48.176-48.176    H96.452c-11.777,0-21.358,9.581-21.358,21.357v53.722C75.093,359.84,84.674,369.421,96.452,369.421z M83.429,294.341    c0-7.18,5.842-13.022,13.023-13.022h73.488c22.398,0,39.841,18.198,39.841,39.841c0,22.014-17.873,39.925-39.841,39.925H96.452    c-7.181,0-13.023-5.842-13.023-13.022V294.341z"/><path style="fill:#332E8E;" d="M340.983,369.421h73.489c11.777,0,21.358-9.581,21.358-21.357v-53.722    c0-11.776-9.581-21.357-21.358-21.357h-73.489c-27.223,0-48.175,22.12-48.175,48.176    C292.808,347.771,314.419,369.421,340.983,369.421z M340.983,281.32h73.489c7.181,0,13.023,5.842,13.023,13.022v53.722    c0,7.18-5.842,13.022-13.023,13.022h-73.489c-21.968,0-39.839-17.911-39.839-39.925    C301.144,299.553,318.554,281.32,340.983,281.32z"/></g></g><g id="Layer_1"/></svg>