<?xml version="1.0" ?><svg xmlns="http://www.w3.org/2000/svg" xmlns:xlink="http://www.w3.org/1999/xlink" viewBox="0 0 24 24"><defs><style>
      .cls-1 {
        fill: #212529;
      }

      .cls-2 {
        fill: url(#New_Gradient_Swatch);
      }

      .cls-3 {
        fill: url(#New_Gradient_Swatch-2);
      }
    </style><linearGradient id="New_Gradient_Swatch" data-name="New Gradient Swatch" x1="21.3893" y1="21.3906" x2="13.6103" y2="13.6116" gradientUnits="userSpaceOnUse"><stop offset="0" stop-color="#60efff"/><stop offset=".1168" stop-color="#5ff0f1"/><stop offset=".5033" stop-color="#5df5ca"/><stop offset=".8112" stop-color="#5cf8b1"/><stop offset="1" stop-color="#5cfaa9"/></linearGradient><linearGradient id="New_Gradient_Swatch-2" data-name="New Gradient Swatch" x1="16.715" y1="7.285" x2="7.285" y2="-2.145" xlink:href="#New_Gradient_Swatch"/></defs><g id="Layer_9" data-name="Layer 9"><path class="cls-2" d="M23,17.5c0,3.04-2.46,5.5-5.5,5.5s-5.5-2.46-5.5-5.5c0-.17,.01-.34,.03-.5,.25-2.81,2.6-5,5.47-5,1.96,0,3.68,1.02,4.64,2.56,.55,.85,.86,1.86,.86,2.94Z"/><path class="cls-3" d="M21.43,2.57l-6.6,6.6c-1.56,1.56-4.1,1.56-5.66,0L2.57,2.57c.58-.54,1.32-.92,2.15-1.04,2.14-.3101,4.59-.53,7.28-.53,2.08,0,4.53,.13,7.25,.52,.84,.13,1.6,.5,2.18,1.05Z"/></g><g id="Outline"><g><path class="cls-1" d="M19.7764,15.7109l-2.7637-1.3818c-.626-.3125-1.3525-.2793-1.9463,.0874-.5938,.3672-.9482,1.0034-.9482,1.7017v2.7637c0,.6982,.3545,1.3345,.9482,1.7017,.3232,.1997,.6865,.3003,1.0508,.3003,.3047,0,.6104-.0708,.8955-.2129l2.7637-1.3818c.6816-.3413,1.1055-1.0269,1.1055-1.7891s-.4238-1.4478-1.1055-1.7891Zm-3.6582,3.1709l-.0039-2.7656,2.7676,1.3838-2.7637,1.3818Z"/><path class="cls-1" d="M23.6475,13.2993c.2344-1.4502,.3525-2.897,.3525-4.2993,0-1.4629-.1221-2.916-.3633-4.3154-.3623-2.1597-2.0654-3.8291-4.2451-4.1543-4.8994-.7036-9.8545-.708-14.8145,.0098C2.418,.8506,.7207,2.5195,.3525,4.7007c-.2344,1.4502-.3525,2.897-.3525,4.2993,0,1.4629,.1221,2.916,.3633,4.3154,.3623,2.1597,2.0654,3.8291,4.2451,4.1543,2.121,.3045,4.2683,.4707,6.416,.5123,.2484,3.3589,3.0543,6.018,6.4756,6.018,3.584,0,6.5-2.916,6.5-6.5,0-1.0769-.2674-2.0911-.733-2.9864,.1735-.3904,.3141-.7924,.3804-1.2143ZM4.8633,2.5195c4.7715-.6899,9.5381-.6846,14.2393-.0103,.2652,.0396,.5145,.12,.7522,.2215l-5.7317,5.7321c-1.1699,1.1699-3.0762,1.1699-4.2461,0L4.1422,2.7277c.2286-.0955,.4673-.1717,.7211-.2082Zm6.3223,13.4658c-2.0928-.0347-4.2048-.1955-6.2881-.4946-1.3135-.1958-2.3428-1.2031-2.5625-2.5103-.2227-1.292-.335-2.6313-.335-3.9805,0-1.2959,.1104-2.6353,.3262-3.9736,.0579-.3433,.1728-.6639,.3304-.9562l5.8063,5.8068c.9756,.9751,2.2559,1.4624,3.5371,1.4624s2.5615-.4873,3.5371-1.4624l5.8016-5.8021c.1563,.2893,.2694,.6063,.3263,.9446,.2227,1.292,.335,2.6313,.335,3.9805,0,1.1619-.1019,2.3607-.2773,3.5685-1.1371-.9752-2.6108-1.5685-4.2227-1.5685-3.0617,0-5.6292,2.1307-6.3145,4.9853Zm6.3145,6.0147c-2.4814,0-4.5-2.0186-4.5-4.5s2.0186-4.5,4.5-4.5,4.5,2.0186,4.5,4.5-2.0186,4.5-4.5,4.5Z"/></g></g></svg>